<svg width="143.000000" height="35.000000" viewBox="0 0 143 35" fill="none" xmlns="http://www.w3.org/2000/svg" xmlns:xlink="http://www.w3.org/1999/xlink">
	<desc>
			Created with Pixso.
	</desc>
	<defs/>
	<path d="M17.5 0L15.03 9.1L8.03 2.77L10.88 11.77L1.58 10.23L8.83 16.25L0.17 19.99L9.54 21.13L4.27 28.96L12.76 24.86L12.56 34.29L17.5 26.25L22.43 34.29L22.23 24.86L30.72 28.96L25.45 21.13L34.82 19.99L26.16 16.25L33.41 10.23L24.11 11.77L26.96 2.77L19.96 9.1L17.5 0Z" fill="#598D66" fill-opacity="1.000000" fill-rule="evenodd"/>
	<path d="M66.12 20.47L69.17 25L72.04 25L67.86 18.97L71.76 14.54L68.92 14.54L64.7 19.23L64.7 10.4L62.02 10.4L62.02 25L64.7 25L64.7 21.87L66.12 20.47ZM44.47 10.8L44.47 25L47.23 25L47.23 10.8L44.47 10.8ZM94.67 25L94.67 10.8L91.93 10.8L91.93 16.53L85.49 16.53L85.49 10.8L82.73 10.8L82.73 25L85.49 25L85.49 18.94L91.93 18.94L91.93 25L94.67 25ZM123.57 24.94Q124.52 25.2 125.53 25.2Q127.46 25.2 128.6 24.32Q129.05 23.97 129.32 23.51Q129.74 22.82 129.74 21.87Q129.74 20.91 129.29 20.37Q128.85 19.81 127.98 19.43Q127.12 19.05 125.86 18.7Q125.24 18.5 124.81 18.33Q124.38 18.17 124.17 17.96Q124.14 17.94 124.12 17.91Q123.96 17.71 123.96 17.37Q123.96 17 124.14 16.77Q124.16 16.75 124.19 16.72Q124.42 16.49 124.79 16.4Q125.16 16.29 125.58 16.29Q125.7 16.29 125.82 16.3Q126.43 16.34 127.03 16.59Q127.76 16.87 128.56 17.5L129.64 15.8Q128.93 15.12 128.08 14.77Q127.95 14.72 127.81 14.67Q126.82 14.32 125.69 14.32Q124.42 14.32 123.46 14.74Q122.61 15.11 122.1 15.76Q122.04 15.83 121.98 15.91Q121.9 16.03 121.83 16.16Q121.46 16.82 121.46 17.7Q121.46 18.55 121.85 19.11Q122.24 19.65 123.01 20.01Q123.8 20.38 124.96 20.76Q125.66 20.96 126.14 21.12Q126.64 21.27 126.9 21.48Q126.98 21.55 127.04 21.64Q127.15 21.82 127.15 22.08Q127.15 22.37 127.02 22.59Q126.91 22.78 126.69 22.91Q126.22 23.19 125.44 23.19Q124.6 23.19 123.68 22.84Q122.77 22.48 121.84 21.71L120.88 23.46Q121.06 23.63 121.25 23.79Q122.01 24.41 122.98 24.76Q123.27 24.86 123.57 24.94ZM57 25L59.68 25L59.68 18.46Q59.68 17.7 59.55 16.96Q59.41 16.22 59.08 15.62Q58.98 15.45 58.86 15.29Q58.57 14.93 58.12 14.69Q57.49 14.34 56.51 14.34Q55.61 14.34 54.8 14.58Q53.99 14.83 53.37 15.31Q53.12 15.5 52.9 15.73Q52.59 16.05 52.35 16.45L52.35 14.52L49.94 14.52L49.94 25L52.62 25L52.62 18.88Q52.74 18.49 52.95 18.15Q53.08 17.94 53.26 17.75Q53.7 17.26 54.24 16.98Q54.79 16.69 55.34 16.69Q55.8 16.69 56.14 16.89Q56.38 17.04 56.56 17.28Q57 17.86 57 19.12L57 25ZM99.73 24.77Q100.76 25.2 102.04 25.2Q103.31 25.2 104.33 24.77Q105.22 24.39 105.88 23.77Q105.97 23.68 106.06 23.58Q106.4 23.22 106.66 22.81Q106.95 22.35 107.14 21.84Q107.25 21.56 107.32 21.27Q107.51 20.55 107.51 19.78Q107.51 18.84 107.25 17.99Q107.2 17.84 107.14 17.7Q106.96 17.2 106.68 16.76Q106.41 16.33 106.05 15.96Q105.9 15.79 105.73 15.64Q105.12 15.1 104.33 14.77Q103.31 14.34 102.04 14.34Q100.76 14.34 99.73 14.77Q98.88 15.12 98.24 15.72Q98.12 15.83 98 15.96Q97.72 16.25 97.5 16.58Q97.14 17.1 96.91 17.7Q96.85 17.86 96.8 18.03Q96.54 18.86 96.54 19.78Q96.54 20.53 96.72 21.23Q96.8 21.54 96.91 21.84Q97.14 22.41 97.47 22.91Q97.71 23.26 98 23.58Q98.1 23.69 98.21 23.79Q98.86 24.4 99.73 24.77ZM134.13 24.77Q135.15 25.2 136.41 25.2Q137.58 25.2 138.53 24.85Q139.5 24.5 140.2 23.88Q140.83 23.34 141.19 22.66Q141.25 22.56 141.3 22.46L139 21.82Q138.95 21.92 138.9 22.02Q138.62 22.52 138.03 22.85Q137.64 23.06 137.24 23.15Q136.89 23.24 136.52 23.24Q136.07 23.24 135.67 23.11Q135.43 23.04 135.2 22.93Q135 22.82 134.82 22.69Q134.46 22.42 134.2 22.02Q133.82 21.42 133.73 20.62L141.83 20.62Q141.85 20.45 141.87 20.2Q141.89 19.96 141.89 19.72Q141.89 18.88 141.67 18.1Q141.51 17.57 141.24 17.07Q140.98 16.57 140.63 16.16Q140.11 15.54 139.37 15.09Q138.16 14.34 136.43 14.34Q134.74 14.34 133.5 15.08L133.48 15.09Q132.71 15.55 132.17 16.2Q131.82 16.6 131.57 17.08Q131.4 17.38 131.28 17.7Q130.9 18.68 130.9 19.81Q130.9 20.59 131.1 21.32Q131.17 21.6 131.28 21.87Q131.5 22.4 131.81 22.87Q132.07 23.25 132.39 23.59Q132.47 23.68 132.56 23.76Q133.23 24.39 134.13 24.77ZM109.21 14.52L109.21 21.07Q109.21 23.1 110.05 24.15Q110.27 24.42 110.54 24.62Q111.32 25.2 112.51 25.2Q113.64 25.2 114.6 24.8Q114.77 24.73 114.94 24.65Q115.36 24.44 115.72 24.15Q116.3 23.69 116.73 23.04L116.8 23.88Q116.84 24.2 117 24.45Q117.13 24.64 117.32 24.79Q117.77 25.12 118.5 25.12Q118.72 25.12 118.98 25.08Q119.26 25.05 119.65 25L119.65 22.82Q119.32 22.77 119.16 22.6Q119.01 22.42 119.01 22L119.01 14.52L116.34 14.52L116.34 21.02Q116.03 21.66 115.61 22.08Q115.18 22.5 114.66 22.71Q114.21 22.89 113.76 22.91Q113.7 22.91 113.64 22.91Q113.06 22.91 112.68 22.65Q112.48 22.51 112.33 22.3Q111.89 21.69 111.89 20.49L111.89 14.52L109.21 14.52ZM139.15 18.92L133.67 18.92Q133.75 18.12 134.12 17.52Q134.36 17.15 134.68 16.88Q134.87 16.73 135.09 16.61Q135.25 16.51 135.42 16.45Q135.88 16.27 136.39 16.27Q137.01 16.27 137.52 16.5Q137.63 16.55 137.73 16.61Q137.99 16.74 138.2 16.93Q138.49 17.18 138.7 17.52Q139.08 18.12 139.15 18.92ZM99.65 21.41Q99.3 20.69 99.3 19.78Q99.3 18.86 99.65 18.15Q99.93 17.6 100.36 17.23Q100.49 17.12 100.63 17.03Q100.85 16.88 101.09 16.79Q101.53 16.62 102.04 16.62Q102.49 16.62 102.9 16.76Q103.17 16.86 103.42 17.02Q103.52 17.08 103.62 17.16Q104.1 17.54 104.4 18.14Q104.42 18.17 104.44 18.21Q104.77 18.9 104.77 19.76Q104.77 20.67 104.4 21.39Q104.12 21.93 103.69 22.3Q103.56 22.41 103.42 22.5Q103.15 22.68 102.86 22.78Q102.47 22.91 102.04 22.91Q101.51 22.91 101.05 22.73Q100.83 22.64 100.63 22.51Q100.49 22.42 100.36 22.31Q99.93 21.95 99.65 21.41ZM73.12 22.11L73.12 25L75.31 25L75.31 22.11L73.12 22.11Z" fill="#598D66" fill-opacity="1.000000" fill-rule="evenodd"/>
</svg>
